<svg width="23" height="23" viewBox="0 0 23 23" fill="none" xmlns="http://www.w3.org/2000/svg">
<path d="M19.9696 9.42174H12.4905C12.3588 9.4217 12.2284 9.44564 12.1069 9.49212C11.9854 9.53859 11.8753 9.60667 11.783 9.6924C11.6908 9.77812 11.6182 9.87975 11.5696 9.99135C11.521 10.1029 11.4973 10.2223 11.4998 10.3423V12.8384C11.4998 13.0779 11.6042 13.3075 11.79 13.4769C11.9758 13.6462 12.2278 13.7413 12.4905 13.7413H17.6385C17.6526 14.4255 17.5081 15.1048 17.2146 15.7348C16.9211 16.3647 16.4853 16.9313 15.9354 17.3974C15.3855 17.8633 14.7339 18.2185 14.0232 18.4396C13.3125 18.6607 12.5586 18.7429 11.8108 18.6804C7.45944 18.6804 5.36148 15.3169 5.36148 11.493C5.36148 7.66912 7.61485 4.30553 11.8108 4.30553C13.6632 4.24953 15.4784 4.78839 16.9391 5.828C17.0559 5.89764 17.1881 5.94304 17.3261 5.96098C17.4643 5.9789 17.605 5.96893 17.7385 5.93178C17.872 5.89462 17.9949 5.83117 18.0983 5.74593C18.2019 5.66069 18.2837 5.55575 18.3378 5.43853L19.5617 2.88929C19.6622 2.7014 19.6883 2.48748 19.6352 2.28408C19.582 2.08068 19.453 1.90039 19.2701 1.77399C17.0427 0.560091 14.4832 -0.0537219 11.8885 0.00368834C4.81755 -0.0140148 0 4.99596 0 11.493C0 17.9901 4.83698 23 11.8108 23C18.7846 23 23 18.468 23 12.3781C23 10.4308 22.1453 9.42174 19.9696 9.42174Z" fill="#E9BC01"/>
</svg>
