<svg width="24" height="24" viewBox="0 0 24 24" fill="none" xmlns="http://www.w3.org/2000/svg">
<path fill-rule="evenodd" clip-rule="evenodd" d="M3.07973 0.00020479C3.06642 -6.53718e-05 3.0531 -6.82327e-05 3.03979 0.000196207C2.25149 0.0158611 1.49909 0.309278 0.93513 0.820965C0.371174 1.33265 0.0378442 2.02431 0.00271939 2.75577C0.00191631 2.77248 0.00164124 2.78923 0.00189417 2.80598C0.0131907 3.55342 0.333294 4.26828 0.896054 4.80281C1.45881 5.33734 2.22121 5.6507 3.02569 5.67809C3.04389 5.67873 3.06211 5.67885 3.08034 5.67845C3.89183 5.66148 4.66357 5.34871 5.22877 4.80773C5.79397 4.26674 6.10726 3.54099 6.10095 2.78727L6.10034 2.76192C6.07091 2.03078 5.74182 1.33767 5.18035 0.824338C4.6189 0.311001 3.86748 0.0161978 3.07973 0.00020479ZM3.0611 7.38134C2.91791 7.38134 2.77832 7.37841 2.63336 7.37535L2.62989 7.37529C2.4902 7.37234 2.34112 7.36922 2.19771 7.36995C1.92221 7.37136 1.57572 7.3855 1.24536 7.48346C0.879304 7.59197 0.523348 7.80643 0.284927 8.18621C0.0662324 8.53459 0 8.93868 0 9.34143V22.0678C0 22.4733 0.0666958 22.884 0.2954 23.2346C0.546881 23.6203 0.919762 23.8224 1.28784 23.9165C1.61752 24.0009 1.96275 24.0036 2.22891 23.9986C2.36704 23.9961 2.48115 23.9918 2.59015 23.9878C2.74027 23.9822 2.88093 23.977 3.0611 23.977C3.24141 23.977 3.38163 23.9822 3.53135 23.9878C3.63972 23.9918 3.75316 23.9961 3.89031 23.9986C4.1545 24.0036 4.49899 24.001 4.82799 23.9158C5.19707 23.8203 5.56712 23.6155 5.81485 23.2293C6.03912 22.8797 6.10394 22.471 6.10394 22.0678V9.34143C6.10394 8.94098 6.0396 8.53884 5.82521 8.19159C5.59054 7.81149 5.23765 7.59446 4.87082 7.48438C4.5411 7.38543 4.19534 7.37136 3.92168 7.36995C3.77918 7.36922 3.63108 7.37234 3.49208 7.37527L3.48798 7.37535C3.34358 7.37841 3.20429 7.38134 3.0611 7.38134ZM14.5989 7.58762C15.4383 7.23965 16.3578 7.09236 17.2735 7.1587C18.1471 7.11795 19.0209 7.2438 19.8404 7.52873C20.6818 7.82124 21.4476 8.27484 22.0879 8.86006C22.7283 9.4453 23.2288 10.1491 23.5572 10.9257C23.8827 11.696 24.0317 12.5209 23.9944 13.3476V22.0169C23.9944 22.4175 23.9316 22.8249 23.7108 23.1739C23.4658 23.5611 23.0973 23.7681 22.7268 23.8646C22.3978 23.9503 22.053 23.9525 21.7886 23.9477C21.6524 23.9451 21.539 23.941 21.4301 23.9369C21.2782 23.9314 21.1351 23.9261 20.9516 23.9261C20.7681 23.9261 20.6252 23.9314 20.4732 23.9369C20.3645 23.941 20.2508 23.9451 20.1145 23.9477C19.8503 23.9525 19.5053 23.9503 19.1765 23.8646C18.8058 23.7681 18.4375 23.5611 18.1923 23.1739C17.9717 22.8249 17.9087 22.4175 17.9087 22.0169V15.2295C17.9087 15.2051 17.9099 15.1808 17.9121 15.1565C17.9329 14.9298 17.901 14.7015 17.8185 14.4872C17.7359 14.2729 17.6045 14.0776 17.4335 13.9145C17.2625 13.7515 17.0556 13.6246 16.8271 13.5424C16.5985 13.4601 16.3536 13.4246 16.1089 13.438C16.0829 13.4395 16.0568 13.4399 16.0308 13.4392C15.7863 13.4335 15.5433 13.476 15.3179 13.564C15.0924 13.652 14.8897 13.7834 14.7231 13.9497C14.5565 14.1159 14.4298 14.3131 14.3514 14.5281C14.273 14.7432 14.2448 14.9713 14.2684 15.1973C14.2713 15.2249 14.2728 15.2527 14.2728 15.2804V22.0678C14.2728 22.4709 14.208 22.8801 13.9828 23.2301C13.7341 23.6169 13.3627 23.821 12.9932 23.9162C12.6637 24.001 12.318 24.0034 12.0516 23.9986C11.9143 23.9961 11.8001 23.9918 11.6906 23.9878C11.5382 23.9822 11.395 23.977 11.2117 23.977C11.0282 23.977 10.8852 23.9823 10.7333 23.9878C10.6244 23.9919 10.5109 23.9961 10.3747 23.9986C10.1104 24.0034 9.76539 24.001 9.43653 23.9155C9.06596 23.819 8.69748 23.6121 8.4525 23.2248C8.23174 22.8758 8.16884 22.4685 8.16884 22.0678V9.3414C8.16884 8.88627 8.25719 8.43228 8.54344 8.05922C8.84863 7.66149 9.27631 7.48618 9.66012 7.4149C9.86384 7.37707 10.1223 7.36659 10.3414 7.36263C10.5806 7.35831 10.8518 7.36126 11.1155 7.36666C11.3629 7.37172 11.5948 7.37849 11.7994 7.38449C12.0563 7.392 12.2703 7.39826 12.4177 7.39826C13.0492 7.39826 13.4411 7.74703 13.6687 8.07888C13.9598 7.88822 14.2712 7.72347 14.5989 7.58762Z" fill="#E9BC01"/>
</svg>
