<svg width="110" height="119" viewBox="0 0 110 119" fill="none" xmlns="http://www.w3.org/2000/svg">
<path d="M58.7774 66.9931C80.586 66.9931 98.2326 52.2399 98.2326 34.0078C98.2326 15.7757 80.586 1.02246 58.7774 1.02246" stroke="#C43024" stroke-miterlimit="10"/>
<path d="M58.7774 63.8514C78.511 63.8514 94.4758 50.5033 94.4758 34.0078C94.4758 17.5123 78.511 4.16418 58.7774 4.16418" stroke="#C43024" stroke-miterlimit="10"/>
<path d="M58.7774 60.7096C76.4299 60.7096 90.719 48.7666 90.719 34.0078C90.719 19.249 76.4299 7.30591 58.7774 7.30591" stroke="#C43024" stroke-miterlimit="10"/>
<path d="M58.7774 57.5679C74.355 57.5679 86.9622 47.0299 86.9622 34.0078C86.9622 20.9856 74.355 10.4476 58.7774 10.4476" stroke="#C43024" stroke-miterlimit="10"/>
<path d="M58.7774 54.4262C72.28 54.4262 83.2054 45.2933 83.2054 34.0078C83.2054 22.7223 72.28 13.5894 58.7774 13.5894" stroke="#C43024" stroke-miterlimit="10"/>
<path d="M58.7774 51.2845C70.1989 51.2845 79.4426 43.5566 79.4426 34.0078C79.4426 24.459 70.1989 16.7311 58.7774 16.7311" stroke="#C43024" stroke-miterlimit="10"/>
<path d="M58.7774 48.1427C68.1239 48.1427 75.6859 41.8199 75.6859 34.0078C75.6859 26.1956 68.1239 19.8728 58.7774 19.8728" stroke="#C43024" stroke-miterlimit="10"/>
<path d="M58.7774 45.001C66.0489 45.001 71.9291 40.0833 71.9291 34.0078C71.9291 27.9323 66.0489 23.0145 58.7774 23.0145" stroke="#C43024" stroke-miterlimit="10"/>
<path d="M58.7774 41.8593C63.9679 41.8593 68.1723 38.3466 68.1723 34.0078C68.1723 29.6689 63.9679 26.1562 58.7774 26.1562" stroke="#C43024" stroke-miterlimit="10"/>
<path d="M58.7774 38.7175C61.8929 38.7175 64.4155 36.6099 64.4155 34.0078C64.4155 31.4056 61.8929 29.298 58.7774 29.298" stroke="#C43024" stroke-miterlimit="10"/>
<path d="M58.7774 35.5758C59.8179 35.5758 60.6588 34.8733 60.6588 34.0078C60.6588 33.1422 59.8179 32.4397 58.7774 32.4397" stroke="#C43024" stroke-miterlimit="10"/>
<path d="M58.8381 23.0033H0.115128" stroke="#C43024" stroke-miterlimit="10"/>
<path d="M59.3703 26.1113H0" stroke="#C43024" stroke-miterlimit="10"/>
<path d="M59.1827 29.2699H0.580734" stroke="#C43024" stroke-miterlimit="10"/>
<path d="M59.1828 32.4116H0.46582" stroke="#C43024" stroke-miterlimit="10"/>
<path d="M59.7152 35.5253H0.350922" stroke="#C43024" stroke-miterlimit="10"/>
<path d="M58.8621 38.667H0.260086" stroke="#C43024" stroke-miterlimit="10"/>
<path d="M58.8621 41.8087H0.145187" stroke="#C43024" stroke-miterlimit="10"/>
<path d="M59.4006 44.9224H0.0303345" stroke="#C43024" stroke-miterlimit="10"/>
<path d="M59.2734 48.1034H0.671417" stroke="#C43024" stroke-miterlimit="10"/>
<path d="M59.2735 51.2451H0.556519" stroke="#C43024" stroke-miterlimit="10"/>
<path d="M59.8058 54.3531H0.435547" stroke="#C43024" stroke-miterlimit="10"/>
<path d="M58.9226 57.5117H0.320648" stroke="#C43024" stroke-miterlimit="10"/>
<path d="M58.9225 60.6534H0.205597" stroke="#C43024" stroke-miterlimit="10"/>
<path d="M59.4551 63.7671H0.0908508" stroke="#C43024" stroke-miterlimit="10"/>
<path d="M59.2734 66.9257H0.671417" stroke="#C43024" stroke-miterlimit="10"/>
<path d="M58.9225 16.7479H0.205597" stroke="#C43024" stroke-miterlimit="10"/>
<path d="M59.4551 19.856H0.0908508" stroke="#C43024" stroke-miterlimit="10"/>
<path d="M59.08 10.4589H0.363037" stroke="#C43024" stroke-miterlimit="10"/>
<path d="M59.6122 13.5669H0.241928" stroke="#C43024" stroke-miterlimit="10"/>
<path d="M59.0013 4.16418H0.284317" stroke="#C43024" stroke-miterlimit="10"/>
<path d="M59.5336 7.27222H0.169403" stroke="#C43024" stroke-miterlimit="10"/>
<path d="M59.2856 1H0.568619" stroke="#C43024" stroke-miterlimit="10"/>
<path d="M65.2923 118C89.2937 118 108.715 101.644 108.715 81.4314C108.715 61.2187 89.2937 44.8629 65.2923 44.8629" stroke="#C43024" stroke-miterlimit="10"/>
<path d="M65.2923 114.517C87.0101 114.517 104.58 99.7188 104.58 81.4314C104.58 63.1441 87.0101 48.3459 65.2923 48.3459" stroke="#C43024" stroke-miterlimit="10"/>
<path d="M65.2923 111.034C84.7198 111.034 100.446 97.7935 100.446 81.4315C100.446 65.0694 84.7198 51.829 65.2923 51.829" stroke="#C43024" stroke-miterlimit="10"/>
<path d="M65.2923 107.551C82.4362 107.551 96.3111 95.8681 96.3111 81.4314C96.3111 66.9946 82.4362 55.3119 65.2923 55.3119" stroke="#C43024" stroke-miterlimit="10"/>
<path d="M65.2923 104.068C80.1525 104.068 92.1765 93.9428 92.1765 81.4314C92.1765 68.92 80.1525 58.7949 65.2923 58.7949" stroke="#C43024" stroke-miterlimit="10"/>
<path d="M65.2923 100.585C77.8622 100.585 88.0354 92.0175 88.0354 81.4314C88.0354 70.8453 77.8622 62.278 65.2923 62.278" stroke="#C43024" stroke-miterlimit="10"/>
<path d="M65.2923 97.1019C75.5786 97.1019 83.9009 90.0922 83.9009 81.4314C83.9009 72.7706 75.5786 65.761 65.2923 65.761" stroke="#C43024" stroke-miterlimit="10"/>
<path d="M65.2923 93.6189C73.295 93.6189 79.7664 88.1669 79.7664 81.4314C79.7664 74.696 73.295 69.244 65.2923 69.244" stroke="#C43024" stroke-miterlimit="10"/>
<path d="M65.2923 90.1359C71.0047 90.1359 75.6319 86.2416 75.6319 81.4315C75.6319 76.6213 71.0047 72.7271 65.2923 72.7271" stroke="#C43024" stroke-miterlimit="10"/>
<path d="M65.2923 86.6529C68.7211 86.6529 71.4974 84.3163 71.4974 81.4315C71.4974 78.5466 68.7211 76.2101 65.2923 76.2101" stroke="#C43024" stroke-miterlimit="10"/>
<path d="M65.2923 83.1698C66.4374 83.1698 67.3629 82.3909 67.3629 81.4314C67.3629 80.4718 66.4374 79.693 65.2923 79.693" stroke="#C43024" stroke-miterlimit="10"/>
<path d="M65.359 69.2316H0.731598" stroke="#C43024" stroke-miterlimit="10"/>
<path d="M65.9448 72.6771H0.60498" stroke="#C43024" stroke-miterlimit="10"/>
<path d="M65.7384 76.1788H1.24414" stroke="#C43024" stroke-miterlimit="10"/>
<path d="M65.7385 79.6619H1.11775" stroke="#C43024" stroke-miterlimit="10"/>
<path d="M66.3242 83.1138H0.991074" stroke="#C43024" stroke-miterlimit="10"/>
<path d="M65.3856 86.5968H0.891296" stroke="#C43024" stroke-miterlimit="10"/>
<path d="M65.3857 90.0798H0.764908" stroke="#C43024" stroke-miterlimit="10"/>
<path d="M65.9781 93.5316H0.638306" stroke="#C43024" stroke-miterlimit="10"/>
<path d="M65.8382 97.0582H1.34392" stroke="#C43024" stroke-miterlimit="10"/>
<path d="M65.8383 100.541H1.21753" stroke="#C43024" stroke-miterlimit="10"/>
<path d="M66.424 103.987H1.0842" stroke="#C43024" stroke-miterlimit="10"/>
<path d="M65.4521 107.489H0.957825" stroke="#C43024" stroke-miterlimit="10"/>
<path d="M65.4519 110.972H0.831146" stroke="#C43024" stroke-miterlimit="10"/>
<path d="M66.0381 114.423H0.704941" stroke="#C43024" stroke-miterlimit="10"/>
<path d="M65.8382 117.925H1.34392" stroke="#C43024" stroke-miterlimit="10"/>
<path d="M65.4519 62.2966H0.831146" stroke="#C43024" stroke-miterlimit="10"/>
<path d="M66.0381 65.7423H0.704941" stroke="#C43024" stroke-miterlimit="10"/>
<path d="M65.6254 55.3245H1.00467" stroke="#C43024" stroke-miterlimit="10"/>
<path d="M66.2112 58.77H0.871338" stroke="#C43024" stroke-miterlimit="10"/>
<path d="M65.5387 48.3459H0.917908" stroke="#C43024" stroke-miterlimit="10"/>
<path d="M66.1247 51.7916H0.791519" stroke="#C43024" stroke-miterlimit="10"/>
<path d="M65.8516 44.838H1.23083" stroke="#C43024" stroke-miterlimit="10"/>
</svg>
