<svg width="118" height="117" viewBox="0 0 118 117" fill="none" xmlns="http://www.w3.org/2000/svg">
<rect x="118" width="35.5034" height="117" transform="rotate(90 118 0)" fill="#C43024" fill-opacity="0.8"/>
<path d="M31.6509 74.6379C11.5973 74.6379 0.999998 58.2006 0.999998 37.9241C0.999999 17.6477 11.5973 1.21032 31.6509 1.21033C51.7046 1.21033 67.9613 17.6477 67.9613 37.9241C67.9613 58.2006 51.7046 74.6379 31.6509 74.6379Z" fill="#C43024" fill-opacity="0.8"/>
<path d="M87.3491 75.8482C107.403 75.8482 118 59.4109 118 39.1345C118 18.858 107.403 2.42066 87.3491 2.42066C67.2954 2.42066 51.0387 18.858 51.0387 39.1344C51.0387 59.4109 67.2954 75.8482 87.3491 75.8482Z" fill="#C43024" fill-opacity="0.8"/>
<rect width="35.5034" height="117" fill="#E9BC01" fill-opacity="0.8"/>
<rect x="1.61379" y="89.5656" width="76.6552" height="27.4345" fill="#E9BC01" fill-opacity="0.8"/>
<rect x="1.61379" y="45.1862" width="76.6552" height="27.4345" fill="#E9BC01" fill-opacity="0.8"/>
<rect x="1.61379" width="76.6552" height="27.4345" fill="#E9BC01" fill-opacity="0.8"/>
<rect y="117" width="35.5034" height="118" transform="rotate(-90 0 117)" fill="#0367BD" fill-opacity="0.8"/>
<rect x="90.331" y="115.386" width="76.6552" height="27.669" transform="rotate(-90 90.331 115.386)" fill="#0367BD" fill-opacity="0.8"/>
</svg>
