<svg width="28" height="28" viewBox="0 0 28 28" fill="none" xmlns="http://www.w3.org/2000/svg">
<path fill-rule="evenodd" clip-rule="evenodd" d="M5.09091 0C3.74072 0 2.44582 0.536362 1.49109 1.49109C0.536362 2.44582 0 3.74072 0 5.09091V22.9091C0 24.2593 0.536362 25.5542 1.49109 26.5089C2.44582 27.4636 3.74072 28 5.09091 28H22.9091C24.2593 28 25.5542 27.4636 26.5089 26.5089C27.4636 25.5542 28 24.2593 28 22.9091V5.09091C28 3.74072 27.4636 2.44582 26.5089 1.49109C25.5542 0.536362 24.2593 0 22.9091 0H5.09091ZM7.63636 7H6.36364V19.7273H8.90909V15.9091H10.8182C11.4032 15.9091 11.9824 15.7939 12.5229 15.57C13.0633 15.3461 13.5544 15.018 13.968 14.6044C14.3817 14.1907 14.7098 13.6997 14.9336 13.1592C15.1575 12.6188 15.2727 12.0395 15.2727 11.4545C15.2727 10.8696 15.1575 10.2903 14.9336 9.74986C14.7098 9.20941 14.3817 8.71835 13.968 8.30471C13.5544 7.89106 13.0633 7.56294 12.5229 7.33908C11.9824 7.11522 11.4032 7 10.8182 7H7.63636ZM10.8182 13.3636H8.90909V9.54545H10.8182C11.3245 9.54545 11.8101 9.74659 12.1681 10.1046C12.5261 10.4626 12.7273 10.9482 12.7273 11.4545C12.7273 11.9609 12.5261 12.4465 12.1681 12.8045C11.8101 13.1625 11.3245 13.3636 10.8182 13.3636ZM17.1818 10.1818V19.7273H19.7273V14.3182C19.9633 13.8945 20.2987 13.5346 20.7047 13.2695C21.1845 12.9615 21.8769 12.7273 22.9091 12.7273V10.1818C21.6669 10.1818 20.6093 10.4313 19.7273 10.8945V10.1818H17.1818Z" fill="black"/>
</svg>
