<svg width="27" height="27" viewBox="0 0 27 27" fill="none" xmlns="http://www.w3.org/2000/svg">
<path d="M3.99154 23.5667L12.8582 26.6934C13.1064 26.7865 13.38 26.7865 13.6282 26.6934L22.4949 23.5667C22.6947 23.4974 22.8719 23.3749 23.0076 23.2126C23.1432 23.0503 23.2322 22.8541 23.2649 22.6451L26.4615 1.34174C26.4869 1.17453 26.4756 1.00381 26.4285 0.841388C26.3813 0.678971 26.2994 0.528747 26.1885 0.401125C26.0775 0.273503 25.9401 0.171535 25.7858 0.102285C25.6315 0.0330352 25.464 -0.0018403 25.2949 7.48101e-05H1.17988C1.01076 -0.0018403 0.843257 0.0330352 0.688961 0.102285C0.534665 0.171535 0.397269 0.273503 0.286294 0.401125C0.175318 0.528747 0.0934164 0.678971 0.0462629 0.841388C-0.000890622 1.00381 -0.0121683 1.17453 0.0132111 1.34174L3.22154 22.6451C3.25427 22.8541 3.34321 23.0503 3.47884 23.2126C3.61447 23.3749 3.7917 23.4974 3.99154 23.5667ZM6.82654 3.38341H17.5482C17.9331 3.37964 18.3085 3.50289 18.6163 3.73406C18.9241 3.96523 19.1471 4.29143 19.2507 4.66214C19.3544 5.03286 19.3329 5.4274 19.1896 5.78467C19.0463 6.14195 18.7893 6.44201 18.4582 6.63841L13.1032 9.88174C13.0506 9.91618 13.01 9.96611 12.987 10.0246C12.964 10.0832 12.9598 10.1474 12.9749 10.2084C12.9925 10.269 13.0294 10.3222 13.0799 10.3601C13.1304 10.3979 13.1918 10.4184 13.2549 10.4184H17.8165C18.0687 10.4184 18.318 10.4726 18.5474 10.5773C18.7769 10.6819 18.9812 10.8346 19.1465 11.0251C19.3087 11.2169 19.4288 11.4406 19.4991 11.6818C19.5695 11.9229 19.5885 12.1761 19.5549 12.4251L18.5399 19.5417C18.4909 19.8753 18.3473 20.1878 18.126 20.4422C17.9047 20.6965 17.6151 20.8821 17.2915 20.9767L13.7215 22.0034C13.5659 22.0464 13.4047 22.0661 13.2432 22.0617C13.0774 22.0614 12.9125 22.0379 12.7532 21.9917L9.19488 20.9767C8.87828 20.8843 8.59373 20.7054 8.37321 20.4602C8.15269 20.2149 8.00493 19.913 7.94654 19.5884L7.40988 16.4151C7.35882 16.1057 7.43278 15.7886 7.61547 15.5337C7.79816 15.2788 8.07462 15.107 8.38404 15.0559C8.69346 15.0049 9.01049 15.0788 9.26538 15.2615C9.52028 15.4442 9.69216 15.7207 9.74321 16.0301L10.1399 18.4334C10.1567 18.5437 10.2055 18.6466 10.2801 18.7296C10.3547 18.8125 10.452 18.8718 10.5599 18.9001L13.0915 19.6234C13.1977 19.6581 13.3121 19.6581 13.4182 19.6234L15.9265 18.9117C16.0361 18.8826 16.1345 18.8216 16.2093 18.7364C16.2841 18.6513 16.3318 18.5458 16.3465 18.4334L17.1165 13.0551C17.1224 13.0134 17.1192 12.971 17.1071 12.9308C17.095 12.8905 17.0743 12.8533 17.0465 12.8217C16.9891 12.7593 16.9096 12.7216 16.8249 12.7167H10.1049C9.71983 12.7231 9.34356 12.6015 9.03514 12.3709C8.72671 12.1403 8.50359 11.8138 8.4008 11.4427C8.29801 11.0715 8.32136 10.6768 8.46719 10.3204C8.61302 9.96394 8.87308 9.66604 9.20654 9.47341L14.5499 6.26508C14.6071 6.23418 14.6524 6.18504 14.6785 6.12546C14.7046 6.06588 14.71 5.99928 14.694 5.93625C14.6779 5.87322 14.6412 5.81739 14.5897 5.77761C14.5382 5.73784 14.4749 5.71641 14.4099 5.71674H6.82654C6.51712 5.71674 6.22038 5.59383 6.00159 5.37503C5.78279 5.15624 5.65988 4.85949 5.65988 4.55007C5.65988 4.24066 5.78279 3.94391 6.00159 3.72512C6.22038 3.50632 6.51712 3.38341 6.82654 3.38341Z" fill="black"/>
</svg>
