<svg width="28" height="28" viewBox="0 0 28 28" fill="none" xmlns="http://www.w3.org/2000/svg">
<path fill-rule="evenodd" clip-rule="evenodd" d="M5.09091 0C3.74072 0 2.44582 0.536362 1.49109 1.49109C0.536362 2.44582 0 3.74072 0 5.09091V22.9091C0 24.2593 0.536362 25.5542 1.49109 26.5089C2.44582 27.4636 3.74072 28 5.09091 28H22.9091C24.2593 28 25.5542 27.4636 26.5089 26.5089C27.4636 25.5542 28 24.2593 28 22.9091V5.09091C28 3.74072 27.4636 2.44582 26.5089 1.49109C25.5542 0.536362 24.2593 0 22.9091 0H5.09091ZM10.2964 3.81818H13.3051V9.83436H10.2976C9.8974 9.84268 9.49953 9.77104 9.12734 9.62365C8.75514 9.47626 8.4161 9.25607 8.13008 8.97599C7.84405 8.69591 7.6168 8.36156 7.46163 7.99254C7.30645 7.62352 7.22648 7.22724 7.2264 6.82692C7.22631 6.4266 7.30612 6.03029 7.46113 5.66121C7.61615 5.29212 7.84326 4.95768 8.12917 4.67747C8.41507 4.39727 8.75402 4.17694 9.12615 4.02939C9.49829 3.88184 9.89613 3.81003 10.2964 3.81818ZM14.2316 10.2964V3.81818H17.4707C18.3141 3.84183 19.1149 4.19346 19.7031 4.79832C20.2912 5.40319 20.6203 6.2136 20.6203 7.05727C20.6203 7.90095 20.2912 8.71135 19.7031 9.31622C19.1149 9.92109 18.3141 10.2727 17.4707 10.2964H14.2316ZM17.2391 17.0087C18.0371 17.0087 18.8023 16.6917 19.3666 16.1275C19.9308 15.5632 20.2478 14.798 20.2478 14C20.2478 13.202 19.9308 12.4368 19.3666 11.8725C18.8023 11.3083 18.0371 10.9913 17.2391 10.9913C16.4411 10.9913 15.6758 11.3083 15.1116 11.8725C14.5474 12.4368 14.2304 13.202 14.2304 14C14.2304 14.798 14.5474 15.5632 15.1116 16.1275C15.6758 16.6917 16.4411 17.0087 17.2391 17.0087ZM13.3064 17.0087V10.9913H10.2964C9.4984 10.9913 8.73312 11.3083 8.16887 11.8725C7.60463 12.4368 7.28764 13.202 7.28764 14C7.28764 14.798 7.60463 15.5632 8.16887 16.1275C8.73312 16.6917 9.4984 17.0087 10.2964 17.0087H13.3064ZM13.3064 21.1731V18.1656H10.2964C9.70124 18.1656 9.11948 18.3421 8.62467 18.6728C8.12986 19.0034 7.74423 19.4734 7.51654 20.0233C7.28885 20.5731 7.22935 21.1781 7.34554 21.7618C7.46174 22.3455 7.74842 22.8816 8.16932 23.3023C8.59023 23.723 9.12645 24.0095 9.71017 24.1254C10.2939 24.2414 10.8989 24.1816 11.4486 23.9537C11.9984 23.7258 12.4682 23.3399 12.7986 22.845C13.1291 22.35 13.3066 21.7682 13.3064 21.1731Z" fill="black"/>
</svg>
