<svg width="28" height="28" viewBox="0 0 28 28" fill="none" xmlns="http://www.w3.org/2000/svg">
<path d="M14.0465 6.34001e-07C10.7035 -0.00101446 7.46979 1.21695 4.92688 3.43488C2.38397 5.65281 0.698677 8.7252 0.174036 12.0996C-0.350606 15.474 0.31983 18.9289 2.06479 21.8433C3.80974 24.7576 6.51474 26.9401 9.69337 27.9982H10.021C10.3199 28.0131 10.6131 27.9104 10.8402 27.7112C10.9768 27.5896 11.0854 27.4386 11.1582 27.269C11.2311 27.0995 11.2663 26.9156 11.2614 26.7305V26.4793V25.1757C11.252 25.0981 11.2275 25.0231 11.1893 24.9554C11.1511 24.8876 11.1 24.8283 11.0391 24.781C10.9725 24.7265 10.895 24.6876 10.8122 24.6669C10.7293 24.6463 10.643 24.6444 10.5593 24.6614C7.4115 25.3551 6.74449 23.3458 6.70939 23.2143C6.31356 22.1495 5.60677 21.2351 4.68496 20.595L4.50943 20.4635C4.64761 20.3952 4.80121 20.3663 4.9541 20.3797C5.24575 20.4246 5.52136 20.5448 5.75481 20.729C5.98827 20.9131 6.17184 21.1552 6.28812 21.4322C6.74081 22.2378 7.48158 22.8326 8.35457 23.0913C9.22757 23.3501 10.1647 23.2526 10.9689 22.8196C11.0558 22.7801 11.1326 22.7208 11.1935 22.6461C11.2544 22.5714 11.2976 22.4835 11.3199 22.389C11.3674 21.84 11.5989 21.3246 11.9752 20.9299C12.062 20.8534 12.1249 20.7526 12.1561 20.6399C12.1873 20.5272 12.1855 20.4076 12.1508 20.296C12.1188 20.1842 12.055 20.0847 11.9675 20.0102C11.8799 19.9356 11.7726 19.8894 11.6593 19.8774C8.88594 19.5545 6.04238 18.5618 6.04238 13.6702C6.02218 12.4401 6.46641 11.2494 7.28278 10.3454C7.35657 10.2628 7.40569 10.1603 7.42436 10.0501C7.44302 9.93992 7.43044 9.82656 7.3881 9.72343C7.06401 8.79048 7.06815 7.77126 7.3998 6.84109C8.4804 7.03845 9.49472 7.51154 10.3487 8.21648C10.4197 8.26613 10.501 8.29843 10.5862 8.31087C10.6715 8.32331 10.7583 8.31557 10.8402 8.28824C11.8861 8.00314 12.964 7.8584 14.0465 7.85768C15.1332 7.85241 16.2157 7.99724 17.2645 8.28824C17.3444 8.31547 17.4294 8.32316 17.5127 8.3107C17.5961 8.29824 17.6754 8.26597 17.7443 8.21648C18.5972 7.50975 19.6119 7.03644 20.6932 6.84109C21.0146 7.76147 21.0146 8.76717 20.6932 9.68755C20.6508 9.79152 20.6394 9.90591 20.6602 10.0165C20.681 10.1271 20.7331 10.229 20.8102 10.3095C21.6139 11.2063 22.0532 12.3824 22.0389 13.5985C22.0389 18.502 19.1953 19.4827 16.4103 19.7937C16.2969 19.8057 16.1896 19.8519 16.1021 19.9264C16.0146 20.001 15.9507 20.1005 15.9188 20.2123C15.885 20.3221 15.8837 20.4397 15.9149 20.5503C15.9461 20.6609 16.0085 20.7596 16.0943 20.8342C16.3532 21.1104 16.5509 21.4402 16.674 21.8013C16.7972 22.1625 16.8429 22.5464 16.8081 22.9272V26.7305C16.8055 26.9164 16.8429 27.1006 16.9178 27.2701C16.9926 27.4396 17.103 27.5902 17.2411 27.7112C17.4154 27.8469 17.6188 27.9383 17.8345 27.9779C18.0501 28.0174 18.2719 28.0039 18.4815 27.9384C21.6237 26.8456 24.2856 24.6504 25.9948 21.7425C27.7041 18.8345 28.3503 15.4018 27.8187 12.0532C27.2872 8.70463 25.6122 5.65675 23.0911 3.45029C20.5699 1.24383 17.3656 0.0214488 14.0465 6.34001e-07Z" fill="black"/>
</svg>
