<svg width="28" height="28" viewBox="0 0 28 28" fill="none" xmlns="http://www.w3.org/2000/svg">
<path fill-rule="evenodd" clip-rule="evenodd" d="M5.09091 0C3.74072 0 2.44582 0.536362 1.49109 1.49109C0.536362 2.44582 0 3.74072 0 5.09091V22.9091C0 24.2593 0.536362 25.5542 1.49109 26.5089C2.44582 27.4636 3.74072 28 5.09091 28H22.9091C24.2593 28 25.5542 27.4636 26.5089 26.5089C27.4636 25.5542 28 24.2593 28 22.9091V5.09091C28 3.74072 27.4636 2.44582 26.5089 1.49109C25.5542 0.536362 24.2593 0 22.9091 0H5.09091ZM17.8182 7H20.3636V19.46C19.6445 19.7095 17.8767 20.2109 16.5607 20.2109C14.9164 20.2109 12.0018 19.3645 12.0018 15.4178C12.0018 11.998 14.8489 10.7087 17.8182 10.7087V7ZM17.8182 12.8851V17.976C16.7618 17.976 14.6364 17.7049 14.6364 15.4305C14.6364 13.1562 16.7618 12.8851 17.8182 12.8851ZM10.1818 8.27273H7.63636V19.7273H10.1818V8.27273Z" fill="black"/>
</svg>
