<svg width="28" height="28" viewBox="0 0 28 28" fill="none" xmlns="http://www.w3.org/2000/svg">
<path fill-rule="evenodd" clip-rule="evenodd" d="M5.09091 0C3.74072 0 2.44582 0.536362 1.49109 1.49109C0.536362 2.44582 0 3.74072 0 5.09091V22.9091C0 24.2593 0.536362 25.5542 1.49109 26.5089C2.44582 27.4636 3.74072 28 5.09091 28H22.9091C24.2593 28 25.5542 27.4636 26.5089 26.5089C27.4636 25.5542 28 24.2593 28 22.9091V5.09091C28 3.74072 27.4636 2.44582 26.5089 1.49109C25.5542 0.536362 24.2593 0 22.9091 0H5.09091ZM6.36364 6.36364H8.90909V18.4545H14.6364L14 21H6.36364V6.36364ZM17.1818 11.4545V21H19.7273V15.5909C19.9633 15.1673 20.2987 14.8073 20.7047 14.5422C21.1845 14.2342 21.8769 14 22.9091 14V11.4545C21.6669 11.4545 20.6093 11.704 19.7273 12.1673V11.4545H17.1818Z" fill="black"/>
</svg>
