<svg width="28" height="28" viewBox="0 0 28 28" fill="none" xmlns="http://www.w3.org/2000/svg">
<path d="M4.2215 24.6558L13.599 27.927C13.8615 28.0243 14.1508 28.0243 14.4133 27.927L23.7908 24.6558C24.0022 24.5832 24.1896 24.4552 24.3331 24.2853C24.4765 24.1155 24.5706 23.9102 24.6052 23.6916L27.986 1.40375C28.0129 1.22881 28.0009 1.05019 27.9511 0.88027C27.9012 0.710347 27.8146 0.553181 27.6972 0.419662C27.5798 0.286142 27.4345 0.179462 27.2713 0.107012C27.1082 0.0345619 26.931 -0.00192535 26.7521 7.82673e-05H1.24785C1.069 -0.00192535 0.891838 0.0345619 0.728653 0.107012C0.565467 0.179462 0.420156 0.286142 0.302787 0.419662C0.185418 0.553181 0.0987982 0.710347 0.0489281 0.88027C-0.000941932 1.05019 -0.0128693 1.22881 0.0139722 1.40375L3.40714 23.6916C3.44175 23.9102 3.53581 24.1155 3.67926 24.2853C3.82271 24.4552 4.01014 24.5832 4.2215 24.6558ZM6.60289 4.30873C6.77441 4.10472 6.98953 3.94088 7.23277 3.82902C7.476 3.71716 7.74128 3.66005 8.00951 3.66182H20.7925C21.1198 3.66182 21.4336 3.79042 21.665 4.01932C21.8964 4.24822 22.0264 4.55868 22.0264 4.8824C22.0264 5.20612 21.8964 5.51658 21.665 5.74548C21.4336 5.97439 21.1198 6.10298 20.7925 6.10298H9.07065C9.02378 6.10154 8.9772 6.11068 8.93443 6.12971C8.89167 6.14875 8.85386 6.17718 8.82387 6.21284C8.79349 6.29143 8.79349 6.37835 8.82387 6.45695L9.50251 10.4727C9.52583 10.615 9.59933 10.7446 9.71 10.8384C9.82067 10.9322 9.96135 10.9843 10.1071 10.9853H18.9293C19.1948 10.9845 19.4573 11.0401 19.6991 11.1485C19.9409 11.2569 20.1563 11.4154 20.3306 11.6134C20.505 11.8114 20.6343 12.0441 20.7098 12.2959C20.7852 12.5476 20.805 12.8125 20.7678 13.0725L19.6944 20.5303C19.6416 20.8807 19.4879 21.2088 19.2515 21.475C19.0152 21.7413 18.7063 21.9345 18.3618 22.0316L14.5984 23.0935C14.2684 23.1912 13.9167 23.1912 13.5867 23.0935L9.81098 22.0316C9.47309 21.9365 9.16951 21.7483 8.93572 21.489C8.70194 21.2296 8.54759 20.9098 8.49073 20.5669L7.83677 17.2835C7.81084 17.1232 7.81709 16.9594 7.85514 16.8015C7.8932 16.6436 7.96232 16.4947 8.05857 16.3632C8.15481 16.2317 8.27629 16.1203 8.41607 16.0353C8.55585 15.9502 8.71119 15.8933 8.87323 15.8676C9.03526 15.842 9.20082 15.8482 9.36044 15.8858C9.52006 15.9235 9.67063 15.9918 9.80354 16.087C9.93645 16.1822 10.0491 16.3024 10.1351 16.4407C10.221 16.579 10.2786 16.7326 10.3045 16.8929L10.724 19.4073C10.7419 19.5227 10.7934 19.6304 10.8723 19.7172C10.9513 19.8039 11.0541 19.8659 11.1682 19.8955L13.8458 20.6523C13.958 20.6887 14.079 20.6887 14.1913 20.6523L16.8441 19.9078C16.9577 19.8732 17.0594 19.8082 17.1379 19.7198C17.2163 19.6314 17.2684 19.5233 17.2883 19.4073L18.1027 13.7804C18.1107 13.7369 18.1081 13.692 18.0953 13.6496C18.0824 13.6072 18.0596 13.5683 18.0286 13.5363C17.9999 13.5023 17.9641 13.4748 17.9236 13.4558C17.8832 13.4369 17.839 13.4268 17.7942 13.4265H8.97194C8.53435 13.4268 8.1108 13.2736 7.77649 12.9943C7.44218 12.715 7.21873 12.3276 7.1458 11.9007L6.12168 5.79784C6.08492 5.52985 6.10904 5.25713 6.19228 4.99952C6.27553 4.74192 6.4158 4.50593 6.60289 4.30873Z" fill="black"/>
</svg>
