<svg width="28" height="28" viewBox="0 0 28 28" fill="none" xmlns="http://www.w3.org/2000/svg">
<path fill-rule="evenodd" clip-rule="evenodd" d="M5.09091 0C3.74072 0 2.44582 0.536362 1.49109 1.49109C0.536362 2.44582 0 3.74072 0 5.09091V22.9091C0 24.2593 0.536362 25.5542 1.49109 26.5089C2.44582 27.4636 3.74072 28 5.09091 28H22.9091C24.2593 28 25.5542 27.4636 26.5089 26.5089C27.4636 25.5542 28 24.2593 28 22.9091V5.09091C28 3.74072 27.4636 2.44582 26.5089 1.49109C25.5542 0.536362 24.2593 0 22.9091 0H5.09091ZM19.6611 9.76436C19.9986 9.76436 20.3224 9.63027 20.561 9.39159C20.7997 9.15291 20.9338 8.82918 20.9338 8.49164C20.9338 8.15409 20.7997 7.83036 20.561 7.59168C20.3224 7.353 19.9986 7.21891 19.6611 7.21891C19.3235 7.21891 18.9998 7.353 18.7611 7.59168C18.5225 7.83036 18.3884 8.15409 18.3884 8.49164C18.3884 8.82918 18.5225 9.15291 18.7611 9.39159C18.9998 9.63027 19.3235 9.76436 19.6611 9.76436ZM20.9338 20.328V11.1351H18.3884V20.328H20.9338ZM4.93309 20.328L8.99818 8.71055V7.87055H12.2449L16.7427 20.328H13.9529L12.894 17.4173H8.49291L7.50655 20.328H4.93309ZM9.19036 14.9405H12.1724L10.682 10.0825L9.19036 14.9405Z" fill="black"/>
</svg>
