<svg width="28" height="28" viewBox="0 0 28 28" fill="none" xmlns="http://www.w3.org/2000/svg">
<path fill-rule="evenodd" clip-rule="evenodd" d="M5.09091 0C3.74072 0 2.44582 0.536362 1.49109 1.49109C0.536362 2.44582 0 3.74072 0 5.09091V22.9091C0 24.2593 0.536362 25.5542 1.49109 26.5089C2.44582 27.4636 3.74072 28 5.09091 28H22.9091C24.2593 28 25.5542 27.4636 26.5089 26.5089C27.4636 25.5542 28 24.2593 28 22.9091V5.09091C28 3.74072 27.4636 2.44582 26.5089 1.49109C25.5542 0.536362 24.2593 0 22.9091 0H5.09091ZM21.0891 7H23.6345V19.46C22.9155 19.7095 21.1476 20.2109 19.8316 20.2109C18.186 20.2109 15.2727 19.3645 15.2727 15.4178C15.2727 11.998 18.1198 10.7087 21.0891 10.7087V7ZM21.0891 12.8851V17.976C20.0327 17.976 17.9073 17.7049 17.9073 15.4305C17.9073 13.1562 20.0327 12.8851 21.0891 12.8851ZM7 8.75636H4.45455L7.63636 14.4836L4.45455 20.2109H7L9.54545 15.7564L12.0909 20.2109H14.6364L11.4545 14.4836L14.6364 8.75636H12.0909L9.54545 13.2109L7 8.75636Z" fill="black"/>
</svg>
